<?xml version="1.0" encoding="utf-8"?>
<svg viewBox="966.623 816.63 7702.102 6787.081" width="7702.102" height="6787.081" xmlns="http://www.w3.org/2000/svg">
  <g>
    <path d="M 2077.8 1055 C 1983.4 1173.9 1911.1 1307 1864 1449 C 1774.7 1717.6 1775.4 2011.4 1865.9 2283 C 1886.6 2344.9 1907.2 2394.9 1936.7 2454 C 1962.9 2506.8 1985.2 2545.6 2015.8 2592 C 2067.5 2670.4 2116.3 2730.4 2183 2797.1 C 2234.4 2848.6 2274.4 2883.2 2331 2925.3 C 2364.7 2950.4 2387.2 2967.3 2404.5 2980.9 C 2535.1 3083 2621.9 3175.5 2683.3 3278.1 C 2705.8 3315.7 2732.1 3364.7 2752.3 3406.7 C 2860.1 3630.7 2895.4 3844.5 2859.5 4055.3 C 2850.3 4109.8 2834.9 4168.6 2815.9 4221.9 C 2807.7 4244.7 2795 4277.4 2792.4 4282 L 2791 4284.5 L 2791.5 4282 C 2791.7 4280.6 2792.9 4270 2794 4258.5 C 2807 4122.3 2801.3 3996.5 2776.5 3872.5 C 2732 3650.1 2625.6 3444.6 2452.7 3247.2 C 2379.5 3163.5 2296 3083.2 2195 2999.2 C 2127.1 2942.7 2112.5 2930.4 2093 2913.3 C 2024.3 2853.2 1963.6 2792.6 1915.5 2736.5 C 1847.9 2657.6 1794.9 2577.9 1753.5 2492.7 C 1747.5 2480.3 1742.2 2470.1 1741.9 2470.1 C 1741.2 2470 1738.8 2473.7 1723 2499 C 1686.7 2557.1 1650.4 2628.4 1625.8 2689.9 C 1582.7 2797.5 1556.4 2907.2 1546.1 3021.5 C 1542 3066.7 1541.5 3078.7 1541.5 3137 C 1541.5 3195.4 1542.1 3210.9 1546.1 3257.5 C 1553.6 3345.3 1572.5 3454 1591.5 3518.5 C 1628.1 3642.8 1706 3777.7 1813.7 3903.1 C 1862.2 3959.6 1921.9 4019.1 1979.5 4068.5 C 2127.4 4195.3 2296.1 4290 2445.7 4330 C 2517.5 4349.2 2570.1 4354.9 2590.5 4345.6 C 2597.6 4342.4 2602.5 4337.8 2605.7 4331.2 C 2608.3 4325.9 2608.5 4324.7 2608.5 4313 C 2608.5 4302.7 2608 4298.7 2605.7 4290 C 2601.1 4272.2 2563.3 4164.8 2546 4120.5 C 2453.2 3882.4 2333.1 3660.4 2188.5 3460 C 2182.4 3451.5 2177 3443.9 2176.5 3443.1 C 2175.5 3441.3 2179.4 3443.7 2195 3454 C 2288.4 3516.3 2367.9 3608.6 2439.2 3737.5 C 2451.9 3760.5 2488 3829.4 2521.5 3894.5 C 2558.1 3965.8 2761 4372.7 2761 4374.9 C 2761 4376 2761.5 4377 2762.1 4377.2 C 2764 4377.8 2765.1 4392.7 2764 4402.6 C 2762.1 4420 2756.4 4435.4 2741.9 4462.5 C 2722.7 4498.4 2715.5 4515.3 2712.5 4531.4 C 2710.9 4540.1 2710 4557.3 2711.1 4558.5 C 2712.5 4559.8 2744.3 4542.2 2762.8 4529.8 C 2787.7 4513.1 2806.4 4497.6 2828 4475.4 C 2895.1 4406.5 2942.2 4308.7 2974.9 4170.4 C 2992.3 4096.9 3002.6 4026.7 3008.2 3943 C 3010 3916.7 3010 3810.6 3008.2 3783.5 C 3001.9 3685.8 2989.8 3601.6 2968.3 3504.5 C 2956.3 3450 2944.7 3406.3 2919.7 3320.5 C 2911.2 3291.3 2894.9 3234.4 2883.5 3194 C 2809.7 2931.8 2787 2855.6 2749.1 2743 C 2679.9 2537.1 2601.9 2366.2 2512.4 2224.2 L 2502 2207.7 L 2506.2 2203.1 C 2508.5 2200.6 2514.8 2193.8 2520.2 2188.1 L 2530 2177.7 L 2534.2 2182.5 C 2646.4 2309.9 2743.4 2471.5 2824.5 2666.5 C 2877.2 2793.2 2922.3 2926 2997.8 3176.5 L 3007.8 3209.5 L 3013.3 3192 C 3077.2 2991.1 3100.1 2803.9 3082 2630 C 3057.3 2393.4 2957.8 2169.2 2772.1 1932.5 C 2711.1 1854.8 2659.5 1796.8 2521 1650.5 C 2436.2 1560.9 2395.8 1516.9 2356.4 1471 C 2257.2 1355.3 2192.3 1261.3 2140.6 1158 C 2122.1 1121 2113.8 1102.6 2100.4 1068.5 C 2095.2 1055.3 2090.5 1043.6 2090.1 1042.5 C 2089.5 1040.9 2087.5 1042.9 2077.8 1055 Z" stroke="none" style="fill: rgb(27, 200, 20);"/>
    <path d="M 3802.4 2363.2 C 3777.1 2414 3738.4 2471.7 3694 2524.8 C 3644.8 2583.8 3601.6 2627.3 3490 2730 C 3421.9 2792.7 3407 2806.8 3372.5 2841.4 C 3322.9 2891.2 3290.9 2927.5 3256.3 2973.5 C 3185.9 3067.1 3137.2 3166.6 3111.5 3269 C 3080.2 3394.2 3080.1 3525.1 3111.1 3670 C 3113.9 3682.9 3116.5 3694 3116.9 3694.8 C 3117.7 3696.2 3129.4 3668.3 3163.8 3583 C 3213.1 3460.8 3231.4 3419.2 3264.9 3353.5 C 3298.2 3288.3 3317.6 3254.9 3341.7 3221.2 C 3369.3 3182.6 3402.2 3148.7 3436.3 3123.6 C 3440.6 3120.4 3444.3 3118 3444.4 3118.2 C 3444.5 3118.3 3439.7 3127.9 3433.7 3139.5 C 3410.5 3184.4 3352.6 3300.1 3338.2 3330.7 C 3293.6 3425.4 3260.3 3505.6 3236.5 3576 C 3219.6 3625.8 3219.1 3657.8 3234.7 3675.1 C 3245.3 3686.8 3258.8 3687.3 3290.4 3677 C 3300.3 3673.8 3315.4 3669.3 3323.9 3667 C 3453.1 3632.3 3570.4 3569.6 3669 3482.5 C 3688.1 3465.7 3726.3 3427.3 3742.5 3408.6 C 3833.9 3303.9 3897.6 3181.8 3931 3047 C 3970.9 2885.8 3964 2717 3910.9 2557.9 C 3889.4 2493.5 3858.5 2427.5 3821.7 2367.4 C 3808.5 2345.9 3810.7 2346.4 3802.4 2363.2 Z" stroke="none" style="fill: rgb(27, 200, 20);"/>
    <path d="M 3442 3707.1 C 3375.2 3711.8 3348.2 3715.8 3296.5 3728.5 C 3254.1 3738.9 3229.9 3747.1 3202.5 3760.4 C 3163 3779.5 3131 3803.7 3116.7 3825.2 C 3105.6 3841.9 3101.1 3856.4 3100.3 3878 C 3099.7 3895.2 3101.2 3905.9 3106.6 3922 C 3117 3953.2 3148.1 3997.4 3180.7 4027.3 C 3199.2 4044.4 3225 4063 3230.1 4063 C 3233.8 4063 3236.6 4060.2 3237.9 4055.3 C 3240.4 4046.1 3262.2 4011.2 3281.5 3985.5 C 3306.6 3952.1 3353.5 3897.8 3360.5 3894 C 3362.8 3892.8 3363.2 3892.9 3364.5 3894.6 C 3365.4 3895.8 3365.9 3896 3366 3895.1 C 3366 3894.4 3365 3892.8 3363.8 3891.5 L 3361.7 3889.3 L 3346.8 3897.6 C 3308.5 3919.2 3278.6 3939.4 3261.1 3955.5 C 3257.8 3958.7 3255 3960.9 3255 3960.5 C 3255 3959.5 3266.6 3942.8 3276.9 3929 C 3286.8 3915.7 3304.9 3896.7 3316.5 3887.3 C 3351.5 3859.2 3392.9 3841.4 3433.5 3837.1 C 3452.8 3835 3454.1 3835 3453.5 3836 C 3453.2 3836.5 3451.8 3837 3450.6 3837 C 3446.7 3837 3436 3843.2 3432 3847.7 C 3420.6 3860.7 3416.4 3875.8 3409.5 3929.3 C 3405.3 3961.1 3400.9 3984 3394 4008.5 C 3387.8 4030.5 3378.6 4067.1 3364.1 4126.6 C 3326.1 4283 3280.7 4443.2 3248.8 4533 C 3236.5 4567.8 3223.3 4601.6 3218.3 4611.2 C 3209 4629.3 3186.9 4647.7 3162.6 4657.6 C 3149.5 4662.9 3143.1 4663.9 3114 4665 C 3058.5 4667.1 3033.7 4670.1 3004.4 4678.5 C 2963.1 4690.3 2932.6 4712 2922.5 4736.8 C 2917.1 4750.1 2915.2 4766.7 2917 4785 C 2919 4806.4 2924.7 4825.2 2935.1 4844.9 C 2943 4860 2949.8 4867.4 2954.3 4865.7 C 2955.1 4865.4 2957.7 4862.4 2959.9 4859.2 C 2971.4 4842.2 2997.8 4828.3 3037.2 4818.6 C 3094.7 4804.3 3209.7 4806.7 3296.5 4824.1 C 3355.8 4835.9 3406.4 4854.9 3494.5 4898.5 C 3533.2 4917.6 3557.4 4930.9 3590.5 4951 C 3635.8 4978.5 3741.9 5041.9 3752.7 5047.9 C 3803.9 5076.3 3863.8 5089.9 3922.3 5086.1 C 3985.4 5082.1 4028.5 5063.7 4070.9 5022.5 C 4122.3 4972.6 4146.9 4907.3 4152.2 4807.3 C 4152.9 4794.5 4153.1 4783.8 4152.8 4783.4 C 4151.6 4782.3 4145.4 4786.1 4138 4792.6 C 4123.5 4805.2 4098.8 4820.4 4080 4828.3 C 4049.3 4841.2 4015.9 4849.4 3979.5 4853.2 C 3959.7 4855.2 3890.7 4854.9 3867 4852.7 C 3806.8 4847 3769.5 4838.3 3690.5 4811.6 C 3648.2 4797.3 3626.7 4789.2 3529.1 4750.1 C 3421.6 4707.1 3404.9 4701.2 3362.5 4691.5 C 3345.7 4687.7 3316.3 4682.5 3305.2 4681.4 C 3297.4 4680.7 3297.1 4680 3303.5 4678 C 3305.7 4677.3 3312.9 4674.2 3319.5 4671 C 3333.8 4664.1 3339.8 4659.1 3347.5 4647.6 C 3354 4637.7 3356.1 4633.2 3365.2 4609 C 3383.8 4559.4 3405.5 4507.7 3437.8 4436 C 3511.4 4272.6 3567.2 4133.2 3608 4011 C 3626.5 3955.8 3636.3 3917.4 3641.9 3879 C 3649.9 3824 3645.9 3788.5 3628.9 3763 C 3613.5 3740 3581.6 3720.7 3546.5 3713.1 C 3518.7 3707 3476.7 3704.6 3442 3707.1 Z" fill="#000000" stroke="none"/>
    <path d="M 3965.3 3942.4 C 3929.3 3949.2 3891.5 3976 3867.9 4011.3 C 3852.9 4033.8 3844.1 4053.5 3828.5 4100 C 3813.4 4144.9 3803.1 4168.9 3789.2 4191.3 C 3768.1 4225.4 3739.6 4251.4 3706.5 4266.5 C 3697.7 4270.5 3676.3 4278 3673.7 4278 C 3672.8 4278 3672 4278.3 3672 4278.6 C 3672 4279.4 3684.9 4320.2 3685.3 4320.6 C 3686.3 4321.6 3724.6 4287.5 3739 4272.9 C 3763.1 4248.4 3766.5 4247 3793.4 4250.5 C 3809.2 4252.6 3830 4252.2 3841.8 4249.6 C 3897 4237.6 3933.3 4193 3936.6 4132.9 C 3937.3 4120.6 3936.4 4107.6 3932.3 4074.5 C 3929.5 4050.9 3928.9 4025.6 3930.9 4015 C 3935.6 3990.9 3949.7 3964.2 3960.8 3958.6 C 3971.8 3953 3993.4 3952.5 4003.2 3957.6 C 4008.1 3960.1 4013 3972.9 4021 4004.3 C 4024.1 4016.3 4025.8 4019.6 4029.8 4021.1 C 4032.9 4022.4 4041.8 4021.7 4045 4020 C 4048.1 4018.3 4053.6 4009.2 4056.2 4001.5 C 4058.2 3995.3 4058.3 3994.1 4057.2 3987.6 C 4053.5 3965.9 4037.6 3950.2 4013 3943.9 C 4002.1 3941.2 3976.2 3940.4 3965.3 3942.4 Z" stroke="none" style="fill: rgb(27, 200, 20);"/>
    <path d="M 3895.2 3949.6 C 3825.7 3969 3775.4 3996.2 3733.6 4037 C 3711.8 4058.3 3702.3 4071.4 3695.4 4089.9 C 3689.5 4105.5 3687.8 4117 3688.3 4136.5 C 3688.6 4150.5 3689.2 4155.2 3691.3 4163.1 C 3699.2 4193 3716.9 4217.9 3730.3 4218 C 3738.5 4218 3746.7 4210.7 3759.3 4191.6 C 3781.2 4158.8 3790.8 4139.8 3816 4078.5 C 3825.9 4054.6 3837.6 4029.9 3845.5 4016.4 C 3861.7 3988.6 3882.1 3965.7 3904.4 3950.1 C 3907.7 3947.9 3909.7 3946 3908.9 3946.1 C 3908.1 3946.1 3902 3947.7 3895.2 3949.6 Z" stroke="none" style="fill: rgb(27, 200, 20);"/>
    <path d="M 4157.3 4080 C 4141 4081.7 4127.8 4085.1 4125.1 4088.3 C 4124.1 4089.6 4124.7 4090.3 4128.2 4092.7 C 4130.9 4094.5 4133.3 4097.2 4134.8 4100.2 C 4137.3 4105.1 4143.6 4129.3 4144.2 4135.7 L 4144.5 4139.5 L 4131 4139.2 C 4104.7 4138.6 4086.6 4136.3 4071.5 4131.4 C 4051.5 4125 4040.7 4116.7 4037.3 4105.1 C 4036.3 4101.8 4035 4099 4034.4 4099 C 4031.9 4099 4026.5 4103.8 4024.3 4108 C 4019.5 4117.5 4017.6 4127.3 4017.6 4143 C 4017.7 4155.8 4018 4158.6 4020.4 4166.3 C 4027.8 4191 4044.2 4210 4068.5 4222.3 C 4081.6 4228.8 4104.9 4234.9 4124.8 4236.8 C 4129.9 4237.3 4134.3 4238 4134.6 4238.2 C 4135.3 4239 4129.7 4264.8 4124.5 4284.8 C 4118.6 4307.3 4110.8 4332.3 4091 4392.5 C 4072 4450.1 4063.9 4476.8 4056.4 4505.5 C 4051.2 4525.8 4050.8 4526.8 4045.4 4534.8 C 4034.7 4550.6 4023.6 4563.5 4005.6 4581.5 C 3987.2 4599.8 3975.7 4609.4 3957.4 4621.4 C 3929.8 4639.4 3906.5 4647.5 3878.3 4648.7 C 3844.9 4650.2 3826.3 4639.5 3815.9 4612.7 C 3808.1 4592.4 3808.1 4572.2 3815.9 4546.5 C 3819.1 4536 3818.4 4536.4 3828.1 4538.8 C 3847.5 4543.8 3874.8 4545.5 3895 4543 C 3941.5 4537.2 3984.6 4515.9 4010.8 4485.8 C 4034.9 4458 4046.1 4429.2 4046.2 4394.5 C 4046.2 4361.1 4037.4 4338.1 4016.6 4317.5 C 3993.2 4294.2 3963.2 4283.4 3932 4286.8 C 3871.4 4293.6 3809.1 4334.8 3770.7 4393.6 C 3739.2 4441.7 3725.7 4488.4 3725.6 4549 C 3725.5 4600.7 3737.8 4637.1 3764.9 4665.4 C 3777 4678 3789.1 4685 3805.8 4689.3 C 3813.4 4691.2 3817 4691.5 3835 4691.4 C 3856.8 4691.4 3867.3 4690.2 3889 4685.4 C 3942.3 4673.5 3995.1 4642.2 4032.2 4600.7 C 4036.7 4595.6 4040.6 4591.4 4040.9 4591.3 C 4041.3 4591.1 4041.5 4598.8 4041.6 4608.3 C 4041.7 4621.8 4042.1 4627.7 4043.8 4635.5 C 4049.9 4664.2 4068.4 4682.3 4098.1 4688.7 C 4104.8 4690.1 4110.5 4690.5 4126 4690.4 C 4173.3 4690.1 4201.8 4678.4 4234.1 4646 L 4244.8 4635.3 L 4248.3 4641.4 C 4256.7 4656 4271.5 4672 4283.4 4679.5 C 4291.9 4684.7 4305.4 4689.4 4317 4691.1 C 4327.4 4692.6 4354 4691.8 4369 4689.5 C 4423.2 4681.2 4475.1 4656.4 4514.5 4619.8 C 4550.2 4586.6 4576.1 4548.5 4593.7 4503 C 4597.4 4493.5 4598.1 4490.7 4597.6 4487.2 C 4597.1 4483.4 4598.6 4479.1 4611.5 4446.8 C 4621.3 4422.1 4626.5 4410.3 4627.7 4409.8 C 4630.8 4408.6 4642.1 4408.9 4652 4410.5 C 4679.8 4415 4703.4 4424.2 4706 4431.5 C 4706.6 4433 4701.6 4448 4689.3 4482.5 C 4669.8 4537.3 4666 4549.5 4662.5 4568.4 C 4654.8 4610.3 4657.5 4639 4671.4 4662.8 C 4681.8 4680.5 4700.4 4689 4732 4690.6 C 4761.9 4692.1 4786.2 4685.9 4809.2 4670.7 C 4824.8 4660.4 4841.5 4642.8 4850.3 4627.1 L 4853.4 4621.7 L 4854.7 4628 C 4859.2 4650.2 4876.6 4667.1 4902.5 4674.2 C 4909.4 4676 4913.2 4676.4 4930 4676.4 C 4946.8 4676.5 4951 4676.2 4960.3 4674.2 C 4972.5 4671.6 4981.2 4668.8 4981.7 4667.4 C 4981.8 4666.9 4978.8 4664.6 4975 4662.2 C 4955.2 4649.9 4945 4631.5 4946.3 4610 C 4947.6 4588.3 4954.7 4566.5 4970.9 4534.3 C 4993.1 4489.9 5019 4453.5 5048.9 4424.7 C 5072.1 4402.3 5093.4 4390 5109 4390 C 5115.5 4390 5117.3 4392.2 5117.8 4400.5 C 5118.9 4417.7 5113.6 4443.5 5101.8 4478 C 5068.8 4574.5 5065.5 4585.5 5062.6 4607 C 5057.9 4640.9 5060.3 4663.5 5069.8 4677.1 C 5078.7 4689.8 5097.5 4698.4 5122.3 4701 C 5134.6 4702.4 5156.4 4701 5171.3 4697.9 C 5182.1 4695.7 5200.1 4690 5206.4 4686.8 L 5210.4 4684.7 L 5204.4 4682.6 C 5190.3 4677.5 5182.8 4667.6 5178.4 4648.5 C 5176.9 4642.1 5176.5 4636.8 5176.6 4621.5 C 5176.8 4591 5180.7 4569.9 5201.5 4489 C 5214 4440.2 5218 4423.7 5222 4403.5 C 5223.2 4397.4 5224.9 4390.1 5225.7 4387.1 C 5227.7 4380.1 5227 4351.4 5224.6 4343 C 5217.4 4317.6 5196.3 4303.2 5171.8 4307 C 5132.7 4313 5068.4 4357.2 5030.7 4403.9 L 5024 4412.2 L 5024 4408.6 C 5024 4406.6 5025.2 4399.1 5026.6 4391.8 C 5028.9 4380.1 5029.2 4376.9 5028.7 4365 C 5028.2 4350.1 5026.6 4343.1 5021.6 4332.5 C 5014.9 4318.2 5001.6 4306.1 4985.9 4300 C 4972.4 4294.8 4962.9 4293.7 4931 4293.6 C 4906.4 4293.5 4901.2 4293.8 4893.2 4295.4 C 4882.9 4297.6 4882.5 4298.9 4891.6 4300.1 C 4898.8 4301.1 4904.4 4304.8 4908.4 4311.4 C 4911.1 4315.7 4911.5 4317.3 4911.8 4326 C 4912.5 4342.3 4907.8 4367 4895.1 4413.7 C 4887.6 4441.5 4875.5 4489.5 4869.4 4516 C 4866.6 4528.2 4864.9 4533.5 4862.9 4536.5 C 4861.3 4538.7 4856.1 4552.1 4851 4567 C 4838.1 4604.3 4829.8 4620.4 4818.1 4631.3 C 4810.2 4638.7 4803.5 4641.3 4791.6 4641.8 C 4773 4642.6 4766.4 4639.2 4764 4627.4 C 4762.4 4619.6 4763.3 4610.7 4768 4591.5 C 4774.4 4565 4782.4 4543.4 4800 4506 C 4821.3 4460.6 4826.5 4448.2 4830.1 4434.4 C 4833.2 4422.5 4833.5 4398.8 4830.7 4389.5 C 4823.8 4367.2 4809.6 4354.3 4780.7 4344.1 C 4761.3 4337.3 4755.3 4336.6 4716.5 4336.5 C 4684 4336.4 4680.9 4336.2 4673.3 4334.2 C 4655 4329.4 4638.4 4318.6 4631.5 4307.1 C 4631 4306.2 4631.9 4306.5 4633.6 4307.8 C 4637.8 4310.7 4656 4320 4657.6 4320 C 4660.9 4320 4662.1 4315.3 4663.1 4299.4 C 4665.3 4261.6 4657.7 4230.1 4640.8 4207.6 C 4631.9 4195.8 4622.8 4191 4609.2 4191 C 4593.9 4191 4581.4 4196.4 4569.9 4207.9 C 4556.8 4221 4547.8 4238.7 4544.5 4257.7 C 4542.5 4268.9 4542.6 4289 4544.6 4298.6 C 4549.6 4323 4565.4 4354.9 4582.1 4374.3 C 4587.9 4381 4588 4381.2 4588 4387.3 C 4587.9 4399.8 4578.1 4440 4563.5 4486.9 C 4552.1 4523.6 4548 4533.9 4541.5 4542.7 C 4506.3 4589.6 4458.2 4628.4 4418.6 4641.5 C 4403.8 4646.4 4394.2 4648.2 4378.5 4648.7 C 4348.1 4649.8 4331.2 4641.1 4320.2 4618.9 C 4309.6 4597.5 4308.8 4574.6 4317.6 4545.7 C 4319.1 4540.9 4320.8 4537 4321.4 4537 C 4322 4537 4326.8 4538.1 4332 4539.4 C 4367.7 4548.4 4413.2 4544.4 4450.6 4528.9 C 4502.4 4507.5 4539.2 4463.7 4546.4 4414.8 C 4554.4 4360.9 4532.6 4317.2 4486.7 4295.5 C 4454.6 4280.2 4415.2 4284.1 4368.5 4306.9 C 4310.7 4335.3 4262.5 4392 4241 4457 C 4231.9 4484.5 4228.1 4507.7 4227.3 4542 C 4226.8 4566.4 4228 4582.5 4231.6 4596.3 L 4233.1 4602.1 L 4228.4 4608.8 C 4225.8 4612.5 4218.7 4620.5 4212.6 4626.6 C 4203.4 4635.8 4200.2 4638.3 4194 4641.3 C 4183.6 4646.2 4176.3 4648 4163.5 4648.6 C 4153.3 4649.1 4152.2 4649 4148 4646.8 C 4142.5 4644 4139.6 4639.8 4136.7 4630.6 C 4134.9 4624.7 4134.5 4621.3 4134.6 4610 C 4134.7 4584.5 4142.1 4557.1 4161.5 4510.6 C 4172.3 4484.8 4182.7 4462.6 4214.8 4397.5 C 4247.3 4331.3 4257.4 4309.5 4266 4286.5 C 4277.5 4255.9 4277.6 4249.4 4266.7 4243.9 C 4261.5 4241.2 4247.1 4238.2 4235.2 4237.4 C 4230.1 4237 4226.1 4236.5 4226.4 4236.3 C 4228 4234.7 4317.6 4219 4362 4212.6 C 4407 4206.1 4424.3 4204.6 4456.5 4204.6 C 4479.7 4204.6 4487.1 4204.9 4493.3 4206.3 C 4503.8 4208.5 4511.1 4212 4514.6 4216.4 C 4520.7 4224 4524.3 4219.6 4524.8 4204.1 C 4525.6 4179.4 4518.1 4164.3 4498.7 4151.9 C 4481 4140.5 4455.8 4133.4 4421 4130 C 4393.5 4127.3 4304.4 4127 4285.4 4129.5 L 4280.3 4130.2 L 4279.8 4125.6 C 4278.7 4116.2 4270.8 4107.5 4254.4 4097.9 C 4240.7 4089.9 4227 4085.2 4206.5 4081.3 C 4196.9 4079.6 4168.8 4078.8 4157.3 4080 Z M 4614.4 4253.4 C 4616 4260.7 4618 4279.3 4618 4286.3 C 4618 4290.1 4617.9 4290.2 4616.1 4288.6 C 4615.1 4287.7 4612.5 4283.3 4610.4 4278.7 C 4606.5 4270.6 4606.5 4270.4 4606.5 4258.4 C 4606.5 4249.5 4606.9 4245.9 4607.9 4244.6 C 4609.2 4243.1 4609.4 4243.1 4611.1 4244.6 C 4612.1 4245.5 4613.6 4249.4 4614.4 4253.4 Z M 3948.3 4388.6 C 3954.6 4390.7 3961.2 4396.8 3964.1 4403.2 C 3966.3 4408 3966.5 4409.8 3966.5 4423 C 3966.4 4434.9 3966 4438.9 3964.2 4445.3 C 3957.7 4468.1 3941.6 4486.3 3917.5 4498.1 C 3894.4 4509.4 3862.4 4514.7 3842.6 4510.5 C 3838.8 4509.7 3834.7 4508.3 3833.4 4507.5 C 3831.3 4506.1 3831.1 4505.4 3831.6 4501.7 C 3833.9 4486.6 3848.9 4458.1 3866.5 4435.5 C 3880.6 4417.4 3898.6 4399.7 3908.3 4394.4 C 3920.1 4388 3938.6 4385.3 3948.3 4388.6 Z M 4452.7 4390 C 4459.5 4393.4 4463.2 4397.6 4466.3 4405.4 C 4468 4409.6 4468.4 4412.7 4468.3 4422.5 C 4468.2 4447.3 4461.2 4464.1 4443.6 4481.2 C 4429.4 4495.1 4410.3 4504.3 4386.3 4509 C 4359.9 4514.2 4334.3 4511.9 4333.2 4504.2 C 4332.1 4497 4344.3 4469.8 4356.9 4451 C 4374.2 4425.2 4397 4401.2 4411 4394 C 4418.2 4390.2 4430.7 4387.2 4439.1 4387.1 C 4445.6 4387 4447.5 4387.4 4452.7 4390 Z" fill="#000000" stroke="none"/>
    <path d="M 5635 4084.7 C 5612.1 4085.9 5593 4090.6 5593 4095 C 5593 4096 5594.6 4098.8 5596.6 4101.2 C 5607.1 4113.7 5618.1 4138.1 5622.6 4159 C 5624 4165.3 5624.4 4171.7 5624.4 4184 C 5624.4 4207.5 5622.6 4215.4 5589.4 4342.2 C 5568.6 4421.8 5552.6 4485.4 5546.5 4512.5 L 5541.8 4533.5 L 5535.1 4542.5 C 5507 4580.7 5468.1 4614.9 5432.4 4633.1 C 5412.6 4643.1 5395.4 4647.7 5373.5 4648.7 C 5342.5 4650 5325.9 4642 5314.6 4620 C 5303.3 4598.2 5302.2 4574.8 5311 4546.7 C 5312.7 4541.4 5314.5 4537 5315 4537 C 5315.4 4537 5320.5 4538.1 5326.2 4539.5 C 5340.4 4542.9 5351 4544 5368 4544 C 5398.9 4543.9 5426.2 4537.7 5453.5 4524.5 C 5485.7 4508.9 5508 4488.6 5524.9 4459.3 C 5544.6 4425.2 5547.1 4377.5 5531.1 4344.5 C 5523 4327.9 5511.5 4314.8 5495.7 4304.2 C 5463.5 4282.4 5431.1 4280.5 5383.5 4297.6 C 5352.7 4308.7 5321 4329.7 5296 4355.6 C 5269.2 4383.3 5245.9 4422 5234.2 4458.2 C 5219.2 4504.4 5216.2 4561.8 5226.5 4603.1 C 5235.7 4639.7 5258.7 4671.5 5284.7 4683.7 C 5298.4 4690 5306.8 4691.5 5330 4691.5 C 5353.3 4691.4 5365.1 4690 5388 4684.4 C 5407.6 4679.6 5424.4 4673.4 5443.5 4664 C 5471.4 4650.3 5494.7 4633.5 5517.3 4610.9 L 5530.1 4598.1 L 5529.3 4605.8 C 5528.9 4610 5528.5 4619.8 5528.6 4627.5 C 5528.8 4664.2 5540 4686.3 5564.9 4699.4 C 5575.8 4705.1 5584.5 4707.1 5601.3 4707.7 C 5623.5 4708.5 5633.9 4706.4 5653.8 4696.9 C 5674.3 4687.3 5693.6 4672.9 5707.5 4657.1 L 5715.5 4648.1 L 5716.7 4653.8 C 5722.7 4683.1 5744 4702.5 5775 4707.1 C 5787.9 4708.9 5809.5 4707.8 5820 4704.7 C 5844 4697.6 5870.5 4680.8 5889.5 4660.8 C 5901.3 4648.4 5904.9 4643.8 5913.2 4630 C 5916.7 4624.2 5920 4619.5 5920.5 4619.5 C 5921.1 4619.4 5922.7 4622.4 5924.1 4626.1 C 5933.4 4649.9 5953.7 4673.3 5973.9 4683.5 C 5976.9 4685 5983.6 4687.4 5988.9 4688.8 C 5997.8 4691.2 6000 4691.4 6019.5 4691.4 C 6055.4 4691.3 6085.8 4684.9 6120.7 4670 C 6190.1 4640.3 6246.6 4580.2 6276.5 4504.5 C 6280.5 4494.5 6281.1 4491.8 6280.7 4487.7 C 6280.1 4481.5 6277.7 4478.2 6271.7 4475.9 C 6267.4 4474.2 6266.6 4474.2 6263.6 4475.4 C 6260.7 4476.6 6259.9 4477.7 6258 4483.7 C 6254.6 4494.1 6243 4515.9 6232.5 4531.5 C 6198.3 4582.4 6144.2 4627.9 6101.3 4641.9 C 6085.6 4647 6076.3 4648.4 6058 4648.5 C 6044.8 4648.5 6040.3 4648.1 6035.5 4646.7 C 6020.2 4641.9 6010.8 4633.7 6003.6 4618.7 C 5997.5 4606.2 5995.9 4599.7 5995.3 4585 C 5994.7 4570.8 5996 4561.8 6001 4545.8 L 6004 4536.1 L 6008.1 4537.5 C 6023 4542.8 6057.8 4545.5 6078.7 4543.1 C 6155.6 4534 6214.8 4486.1 6228.8 4421.6 C 6230.1 4415.3 6230.5 4408.9 6230.4 4393 C 6230.4 4374 6230.2 4371.8 6227.7 4362.5 C 6218.2 4327.1 6189.5 4299 6153 4289.2 C 6144.8 4287 6141.4 4286.7 6128 4286.7 C 6110.5 4286.7 6101.5 4288.3 6081 4295 C 6045.9 4306.5 6018.1 4323.9 5989.4 4352.5 C 5966.9 4374.8 5950.6 4398 5935.9 4428.5 C 5918.7 4464.2 5911.4 4497.6 5910.4 4545.4 L 5909.9 4568.2 L 5906.4 4578.2 C 5896.3 4607.2 5884.2 4627.9 5868.2 4643.3 C 5857.4 4653.7 5845.8 4658.4 5828.3 4659.6 C 5820.2 4660.2 5819.2 4660 5816 4657.8 C 5809.8 4653.6 5808.5 4649.5 5808.6 4634 C 5808.6 4623.3 5809.2 4617.8 5811.4 4607.3 C 5814.1 4594 5818.9 4576.8 5822.9 4565.5 C 5824.1 4562.2 5828.4 4548.9 5832.6 4536 C 5842.3 4506 5851.1 4482.8 5870.5 4435.5 C 5915.7 4325.6 5940.8 4258.5 5949.3 4224.4 C 5955 4201.9 5956.5 4190.7 5956.5 4171 C 5956.5 4152.2 5955.2 4145.2 5949.4 4133.9 C 5946.1 4127.3 5937.9 4117.3 5931.2 4111.7 C 5911.8 4095.4 5888.4 4087.9 5847.8 4085 C 5817.9 4082.9 5780.5 4088 5778.3 4094.6 C 5778.1 4095.1 5780.6 4099.1 5783.8 4103.4 C 5794.7 4117.7 5805.1 4142.4 5808.5 4161.5 C 5811 4175.8 5810.7 4194.9 5807.6 4211 C 5804.5 4227.3 5793 4273.4 5773.5 4348 C 5741.1 4471.4 5724.5 4540.8 5718.4 4578.8 C 5715.1 4599.7 5700.9 4625.5 5683.1 4643 C 5672.9 4653 5660.7 4658.2 5644 4659.6 C 5634.1 4660.4 5629.7 4659.1 5626.5 4654.2 C 5618.4 4641.7 5622 4612.6 5637.7 4564.5 C 5657.2 4504.4 5661.6 4492.3 5685 4435.5 C 5734.8 4314.4 5759.1 4248 5766.3 4213.5 C 5771.5 4188.4 5772.8 4164.6 5769.6 4150 C 5764.2 4124.5 5742.3 4103.2 5711.3 4093.1 C 5699.9 4089.4 5681.6 4086.3 5663 4085 C 5649 4084.1 5646.8 4084 5635 4084.7 Z M 5444.3 4389 C 5450.7 4391.4 5456.1 4396.7 5459.2 4403.5 C 5463.5 4413.2 5462.8 4436.3 5457.5 4451.3 C 5454.2 4460.8 5449.8 4467.8 5441.1 4477.1 C 5425.3 4494.2 5404.8 4504.6 5377 4509.7 C 5363.4 4512.2 5340.5 4512.1 5333 4509.4 C 5327.6 4507.5 5327.5 4507.4 5327.2 4503.3 C 5326.6 4495.7 5333.8 4478.2 5345.3 4459.1 C 5358.3 4437.5 5384.6 4407.3 5399 4397.4 C 5412.4 4388.3 5432.4 4384.6 5444.3 4389 Z M 6133.5 4388.7 C 6140.2 4391 6147.1 4398 6149.6 4405.1 C 6152.2 4412.5 6152.2 4432.3 6149.7 4443.3 C 6144.4 4466 6126.7 4486.3 6101.5 4498.6 C 6077.8 4510.1 6041.7 4515.2 6023.4 4509.6 C 6015.9 4507.3 6015.5 4506.4 6017.4 4497.8 C 6022.9 4472.9 6052.5 4428.6 6079.4 4405 C 6084.2 4400.7 6090.5 4395.9 6093.4 4394.4 C 6105.3 4387.9 6123.6 4385.3 6133.5 4388.7 Z" fill="#000000" stroke="none"/>
    <path d="M 2736.5 4621.6 C 2735.4 4621.8 2716.5 4622.6 2694.5 4623.5 C 2533.3 4629.8 2431 4640 2334.5 4659.6 C 2237.6 4679.3 2177.1 4700.2 2077.9 4748.3 C 2066 4754 2054.1 4760.2 2051.4 4762 C 2025.4 4779.6 2010.6 4802.9 2005.5 4834.3 C 2002.9 4850.5 2003.9 4889.6 2007.6 4914.3 C 2019.4 4993.6 2056.8 5034 2149.1 5067 C 2162.9 5071.9 2199.2 5082.9 2226.5 5090.4 C 2388.1 5134.7 2564.9 5160.3 2781 5170.5 C 2841.8 5173.3 2934.6 5176 2974.8 5176 L 2994 5176 L 2994 5184.9 L 2994 5193.8 L 2991.3 5194.4 C 2985.9 5195.5 2930 5202.9 2900.5 5206.4 C 2641.9 5237.1 2419.3 5234.2 2209.5 5197.4 C 2172.7 5190.9 2123.3 5180.6 2092.6 5172.9 C 2086.1 5171.2 2080.6 5170 2080.5 5170.2 C 2080.3 5170.4 2081.5 5177.9 2083.1 5187 C 2085.7 5201.9 2112.8 5312.5 2170 5540.9 C 2206.5 5686.9 2245.2 5844.8 2276 5973 C 2284.9 6010.1 2294 6045.6 2296.2 6051.8 C 2314.1 6104 2348.1 6138.6 2399 6156.8 C 2426.2 6166.5 2473.3 6180.8 2494 6185.5 C 2636.7 6218.2 2799.1 6227.3 2976 6212.4 C 3054 6205.9 3098.7 6198.7 3164.5 6182 C 3203.5 6172.1 3280.5 6149.3 3295.1 6143.4 C 3339.9 6125.2 3366.1 6087.6 3373.4 6031.2 C 3374.9 6019.9 3375.5 6006 3374.6 6006 C 3374.4 6006 3369.8 6008.1 3364.4 6010.6 C 3347.3 6018.5 3314.2 6032.5 3294.8 6039.9 C 3207.5 6073.2 3128.1 6091 3044 6096.1 C 3022.9 6097.4 2963.2 6096.8 2959.1 6095.2 C 2957 6094.5 2957.4 6094.1 2963.6 6091.3 C 2974.5 6086.5 2988 6082.5 3010.5 6077.5 C 3143.5 6048.2 3239.9 6010.3 3325.7 5953.4 C 3377.1 5919.4 3403.7 5890.6 3418.5 5853.3 C 3421 5846.9 3433.2 5798.7 3457.6 5699.4 C 3520.8 5441.5 3577.6 5211.3 3598.9 5126.5 C 3602.7 5111.1 3605.8 5098.5 3605.7 5098.4 C 3605.6 5098.4 3590 5088.9 3571 5077.5 C 3552 5066 3531.8 5053.8 3526 5050.2 C 3483.3 5023.9 3427.5 4995.6 3369.8 4970.9 C 3345.1 4960.4 3329.1 4954.5 3311.5 4949.5 L 3298.4 4945.8 L 3267.5 4950.9 C 3178 4965.5 3092.5 4974.8 3000.5 4980 C 2990.1 4980.6 2979.9 4981.5 2978 4982 C 2971.9 4983.6 2951.9 4985.2 2948.1 4984.4 C 2946.1 4984 2910.5 4983.8 2869 4983.9 C 2782.3 4984.1 2734.7 4982.9 2665 4978.5 C 2552.6 4971.4 2482.9 4962.3 2372.5 4940.4 C 2331.1 4932.2 2212.6 4907.2 2204.3 4905 C 2192 4901.6 2177.5 4895.3 2145.3 4879.2 L 2114 4863.6 L 2114 4852.4 L 2114 4841.3 L 2134.3 4833.2 C 2145.4 4828.8 2164.6 4821 2177 4816 C 2221.4 4797.9 2240.6 4792.4 2284.5 4785 C 2344.8 4775 2391.8 4768.2 2538.9 4748 C 2579.3 4742.5 2618.2 4737 2625.4 4735.9 C 2644.3 4733 2694.4 4730.8 2713 4732 C 2734.8 4733.5 2793.3 4739.9 2798.5 4741.4 C 2799 4741.5 2800.7 4735.5 2802.2 4728.1 C 2809.8 4690 2827.2 4657.5 2854.2 4630.9 L 2862.9 4622.3 L 2851.7 4621.7 C 2840.6 4621 2740.3 4621 2736.5 4621.6 Z" fill="#000000" stroke="none"/>
    <path d="M 3918.5 5163.6 C 3899.9 5164.8 3882.4 5168.4 3872.3 5173.2 C 3867.7 5175.3 3866 5176.6 3866 5178 C 3866 5179.1 3868.3 5182.5 3871.1 5185.6 C 3888.2 5204.5 3900.4 5235.6 3904.1 5269.5 C 3905.5 5282.7 3904.8 5311.2 3902.5 5328.8 C 3899.2 5355.1 3891.8 5387.9 3880.4 5426.5 C 3877.9 5435.3 3875.3 5444.2 3874.7 5446.3 C 3873.6 5450.7 3874.6 5450.8 3860.5 5445 C 3848.3 5440 3835.8 5436.6 3820.8 5434.4 C 3805.3 5432.1 3773 5432.9 3758.5 5435.9 C 3720.9 5443.7 3677.6 5465.1 3646.5 5491.3 C 3588.2 5540.4 3545.4 5617 3536.4 5688.5 C 3534.5 5703.8 3534.2 5738 3535.9 5751.5 C 3541 5791.8 3553.1 5819.7 3576.1 5844.4 C 3600 5869.9 3627.9 5882.3 3661.5 5882.4 C 3677.7 5882.4 3687.9 5880.7 3703.2 5875.4 C 3737.8 5863.3 3763.9 5841.1 3785 5805.5 C 3788 5800.5 3791 5795.4 3791.9 5794 L 3793.4 5791.5 L 3794.1 5794 C 3794.5 5795.4 3794.8 5799 3794.9 5802.1 C 3795.6 5841 3823.5 5879.2 3857.1 5887.4 C 3866.7 5889.8 3877.1 5890.9 3888.6 5891 C 3908.5 5891 3924.9 5886.4 3943.4 5875.7 C 3972.9 5858.5 3995.7 5837.2 4010.2 5813.2 L 4015.4 5804.6 L 4019.7 5814 C 4031.7 5839.9 4053.7 5864.1 4073.9 5873.7 C 4087.4 5880.1 4098 5882.2 4119 5882.7 C 4186.9 5884.5 4257.8 5858.8 4314.5 5811.9 L 4323.7 5804.3 L 4327.9 5811.5 C 4348.9 5847.1 4395.3 5873.1 4448.2 5878.9 C 4460.5 5880.3 4490 5880.3 4501 5879 C 4538.9 5874.4 4575.7 5859.7 4605.9 5837.2 C 4610.1 5834.1 4618.7 5826.6 4625 5820.5 L 4636.5 5809.4 L 4656 5806.7 C 4699.8 5800.6 4719.7 5794.4 4730.6 5783.5 C 4736.7 5777.4 4738.1 5773.5 4738.1 5762.2 C 4738.2 5753.2 4737 5749.4 4733.5 5747.8 C 4731.4 5746.8 4729.8 5747.3 4722.1 5750.9 C 4717.1 5753.2 4708.9 5756.4 4703.8 5758.1 C 4694.6 5761.1 4660.8 5770.2 4660.4 5769.7 C 4660.3 5769.6 4661.8 5765.7 4663.7 5761 C 4677.9 5726 4681.7 5681.6 4674 5641.6 C 4671.1 5626.9 4667.9 5617.4 4661 5603.5 C 4653 5587.5 4643.9 5575 4630 5561 C 4610.1 5540.9 4601 5534.3 4527.4 5486.5 L 4498.3 5467.6 L 4501.1 5463.7 C 4505.1 5458.2 4507.8 5450.4 4509.4 5439.7 C 4513.8 5411.6 4511.5 5385.3 4502.5 5358.3 C 4491.8 5326.3 4478.2 5314.6 4453.8 5316.4 C 4425.9 5318.5 4404.7 5331.2 4389 5355.2 C 4377.5 5372.6 4372.3 5390.5 4371.3 5416 C 4369.4 5466.7 4385.2 5506.4 4422.3 5544.6 L 4433.1 5555.7 L 4427.4 5573.1 C 4421.4 5591.7 4411.6 5617.4 4405.6 5630.5 C 4402.8 5636.6 4401.2 5638.9 4398.8 5640 C 4396.3 5641.3 4395.2 5642.9 4393.1 5648.9 C 4389.5 5659 4386 5661.9 4375.6 5663 C 4350.3 5665.9 4332.4 5675.9 4321.6 5693.4 C 4310.5 5711.1 4306.8 5731.6 4310.1 5757 L 4311.2 5765.5 L 4303.8 5772.3 C 4286.8 5788.2 4259.6 5807.3 4240.2 5817.2 C 4227.2 5823.8 4208.9 5830 4194.5 5832.6 C 4180.8 5835.2 4154.3 5835.2 4145 5832.7 C 4127.1 5827.9 4115.8 5818.4 4107.2 5800.9 C 4099.8 5785.9 4097.6 5776.1 4097.6 5758 C 4097.6 5746.5 4098.1 5741.7 4099.9 5734.5 C 4102.1 5725.4 4105 5715.7 4106.8 5710.9 L 4107.8 5708.3 L 4116.4 5710.6 C 4146.8 5718.7 4183 5719 4216.7 5711.4 C 4268.3 5699.9 4311 5672.1 4337.2 5633.1 C 4348.9 5615.5 4355 5601.9 4359.7 5582 C 4363.1 5567.7 4364 5540.3 4361.7 5525.4 C 4356.1 5490.3 4337.9 5463.3 4306.7 5443.7 C 4278.5 5426 4245.4 5422.3 4207 5432.6 C 4146.7 5448.8 4092.4 5488.7 4055.1 5544.4 C 4019.9 5596.8 4004.1 5647.7 4002.4 5714 C 4002 5727 4002.2 5740.3 4002.8 5745.5 C 4003.8 5754.2 4003.7 5754.6 4000.8 5762 C 3992.2 5783.7 3977.2 5807 3963.4 5820 C 3951.7 5831 3937.1 5836.6 3917.5 5837.6 C 3907.3 5838.1 3906.2 5838 3902 5835.8 C 3896.1 5832.8 3893.5 5827.9 3892 5817 C 3889.8 5801.4 3892.4 5781.4 3901.5 5743.2 C 3915.7 5683.2 3923.9 5659.2 3976.5 5524.5 C 4035.7 5372.6 4053.2 5317.1 4057.2 5268.4 C 4059 5245.7 4056.3 5228.6 4048.8 5215 C 4033.6 5187.6 4004.5 5171.2 3961 5165.6 C 3948.6 5164 3928.2 5163 3918.5 5163.6 Z M 4457.5 5382.1 C 4459.2 5386.7 4459.4 5390.1 4459.4 5405.5 C 4459.4 5420.5 4459.2 5424.2 4457.7 5427.5 L 4455.9 5431.4 L 4454.2 5428.5 C 4448.5 5419.1 4446.7 5404 4449.4 5390.5 C 4452.8 5374.3 4454.1 5372.8 4457.5 5382.1 Z M 3848.1 5535.6 C 3848.5 5535.8 3846.8 5543.5 3844.4 5552.8 C 3832 5599.7 3822.1 5641.1 3815.1 5675 C 3810.3 5698.4 3808.5 5703.7 3800.5 5719.6 C 3781.7 5756.7 3749.4 5791.1 3718 5807.4 C 3705.5 5813.9 3696.4 5816.4 3685.5 5816.5 C 3677.2 5816.5 3675.9 5816.2 3669 5812.9 C 3659.4 5808.3 3650.4 5800 3646.1 5792.1 C 3638.8 5778.4 3635.4 5755.4 3636.3 5725.7 C 3637.2 5693.3 3643.1 5670 3657.2 5643 C 3668.7 5621 3679.9 5606 3698.7 5588 C 3713.2 5574 3725.4 5565.2 3742 5556.6 C 3765.8 5544.3 3787.8 5537.6 3812.5 5535.1 C 3820.8 5534.2 3846.5 5534.6 3848.1 5535.6 Z M 4256.3 5543.3 C 4263.1 5546.7 4268.2 5552.3 4271.2 5559.9 C 4273.2 5564.9 4273.5 5567.2 4273.4 5580.5 C 4273.4 5605.9 4268.1 5620.9 4253.1 5638.7 C 4233.5 5661.9 4202.8 5676 4163 5680.1 C 4147.4 5681.7 4129.7 5679.7 4123.5 5675.6 C 4121.1 5674 4120.9 5673.4 4121.5 5669.7 C 4124.3 5651.8 4139.8 5622.2 4160.9 5594.5 C 4169.6 5583.1 4190.8 5560.8 4199 5554.5 C 4216.2 5541.3 4241.8 5536.3 4256.3 5543.3 Z M 4515.3 5606.5 C 4540.3 5625.2 4560.2 5650.8 4567.3 5673.5 C 4571.8 5687.9 4573.2 5706 4571 5721.5 C 4569.7 5730.4 4565 5750 4564.2 5750 C 4561.6 5750 4538.8 5735.2 4521.5 5722.4 C 4489 5698.3 4467.2 5685.4 4441.3 5674.9 L 4433 5671.6 L 4434.7 5669.1 C 4446 5651.9 4458.1 5627.7 4468.5 5601.4 L 4475.3 5584.3 L 4490.9 5592.1 C 4499.7 5596.5 4510.3 5602.8 4515.3 5606.5 Z M 4447.5 5728.4 C 4462.1 5732.8 4478.7 5741.5 4503.2 5757.8 C 4515.7 5766.1 4530 5775.2 4534.9 5778.1 C 4539.9 5780.9 4544 5783.6 4544 5784 C 4544 5784.4 4539.1 5789.4 4533.1 5795.1 C 4521.1 5806.6 4509.2 5814.6 4496.6 5819.6 C 4481 5825.9 4477.4 5826.5 4456 5826.4 C 4438.2 5826.4 4435.6 5826.1 4426.5 5823.7 C 4392.2 5814.6 4377.7 5796.7 4377.6 5763.5 C 4377.5 5753 4377.8 5750.9 4379.8 5746.5 C 4384 5737.5 4392.2 5730.7 4403.8 5726.9 C 4412.6 5724 4435.2 5724.8 4447.5 5728.4 Z" fill="#000000" stroke="none"/>
    <path d="M 6490 5195.6 C 6478.2 5197.2 6465.6 5200.4 6462.3 5202.6 C 6459.1 5204.7 6459.5 5206.9 6463.3 5208.5 C 6467.7 5210.3 6469.6 5212.6 6472.5 5219.9 C 6475.6 5227.4 6480.8 5248.2 6481.7 5256.4 L 6482.3 5262.3 L 6465.9 5261.6 C 6432.7 5260.2 6416.4 5257.9 6398.5 5251.9 C 6384 5247.1 6376 5242.7 6369.9 5236.3 C 6364.6 5230.9 6362.6 5227.4 6360.9 5220.6 C 6359.9 5216.5 6359.5 5216 6357.6 5216.6 C 6350.8 5218.5 6346.2 5225.6 6342.4 5239.5 C 6339.9 5248.3 6339.6 5251.3 6339.6 5265 C 6339.5 5283.6 6341.4 5291.9 6349 5307.5 C 6367.3 5344.9 6406.2 5366.6 6463.7 5371.5 C 6471.5 5372.2 6472 5372.3 6471.5 5374.4 C 6471.2 5375.5 6469.8 5382.1 6468.4 5389 C 6460.6 5427.2 6451.6 5457.3 6413.3 5573.5 C 6380 5674.6 6368.1 5726.6 6366.4 5778.5 C 6364.7 5828.7 6377.2 5856.4 6408.7 5872.3 C 6435.7 5886 6491.2 5884.8 6529.2 5869.8 C 6547.7 5862.5 6569.8 5846.1 6588.7 5825.8 L 6594.9 5819.2 L 6598.9 5826 C 6612.1 5848.1 6631.3 5866.9 6648.8 5874.7 C 6661.2 5880.2 6672 5882.2 6692 5882.7 C 6759.8 5884.5 6830.9 5858.7 6887.4 5811.9 L 6896.5 5804.4 L 6900.9 5811.6 C 6922.6 5847.5 6968.4 5873.2 7021.2 5878.9 C 7033.6 5880.3 7063 5880.3 7074 5879 C 7107.3 5875 7140.2 5863 7167.5 5845 C 7181.3 5835.9 7185.9 5832.1 7199 5819.5 L 7209.5 5809.3 L 7229 5806.6 C 7278 5799.9 7299.5 5792.2 7308.1 5778.3 C 7309.9 5775.4 7310.4 5772.8 7310.8 5764.6 C 7311.2 5753.3 7310.3 5749.5 7306.5 5747.8 C 7304.4 5746.8 7302.8 5747.3 7295.1 5750.9 C 7290.1 5753.2 7281.9 5756.4 7276.8 5758.1 C 7267.7 5761.1 7233.8 5770.2 7233.4 5769.7 C 7233.4 5769.6 7235 5765 7237.1 5759.4 C 7245.8 5736.5 7249.7 5717.3 7250.7 5693.5 C 7251.6 5669.2 7248.4 5641.7 7242.4 5623.3 C 7234.1 5597.7 7217 5572.7 7193.6 5551.8 C 7177.6 5537.6 7163.5 5527.5 7115.8 5496.6 L 7071.2 5467.6 L 7073.6 5464.5 C 7084.7 5449.9 7087.8 5409.4 7080.4 5376.1 C 7073.7 5346.3 7062.7 5326.4 7049.4 5320 C 7038.9 5314.9 7021.6 5315.1 7004.9 5320.7 C 6972.6 5331.3 6949.7 5363.3 6944.9 5404.3 C 6943.5 5416.6 6944.2 5441.9 6946.4 5454 C 6952.3 5487.1 6967.9 5516.3 6994.1 5543.5 L 7005.8 5555.5 L 7002.5 5566.5 C 6996.4 5586.6 6986 5614.4 6978.4 5630.9 C 6975.8 5636.7 6974.2 5638.9 6971.8 5640 C 6969.3 5641.3 6968.2 5642.9 6966.1 5648.9 C 6962.5 5659 6959 5661.9 6948.6 5663 C 6928.8 5665.3 6914.2 5671.5 6903.5 5682.4 C 6892.7 5693.3 6886.6 5705.4 6883.4 5721.8 C 6881.7 5730.5 6881.6 5746.8 6883.1 5757.5 L 6884.1 5765.2 L 6881.3 5768.2 C 6876.9 5773 6860.4 5786.5 6849.4 5794.6 C 6820.4 5815.7 6795.1 5827.5 6767.5 5832.6 C 6753.8 5835.2 6727.3 5835.2 6718 5832.7 C 6700 5827.9 6688.6 5818.3 6680.2 5801 C 6672.7 5785.6 6670.6 5776 6670.6 5757.5 C 6670.7 5743.5 6670.9 5741.6 6674.3 5728.8 C 6676.3 5721.3 6678.5 5713.6 6679.3 5711.7 L 6680.8 5708.3 L 6689.4 5710.5 C 6710.7 5716.2 6737.8 5718.3 6760.5 5716.1 C 6833.7 5708.7 6892.6 5671.2 6921.9 5613.1 C 6936.8 5583.6 6940.4 5538.6 6930.4 5506.8 C 6918.7 5469.9 6886.9 5440.4 6847.5 5429.9 C 6836 5426.8 6812.8 5426.2 6798.8 5428.5 C 6760.7 5434.8 6720 5453.7 6686.4 5480.6 C 6674.1 5490.4 6652.6 5511.7 6643.6 5523 C 6621.4 5550.9 6601 5588 6590.5 5619.5 C 6574.9 5666.7 6570.5 5731.1 6579.9 5774.9 L 6581.7 5783.2 L 6575.6 5791.4 C 6566.6 5803.5 6550.7 5819 6542.5 5823.8 C 6527.3 5832.6 6502.4 5837.4 6489.7 5833.9 C 6476.3 5830.2 6468.8 5810.1 6471.1 5783.5 C 6473 5761.2 6478.6 5738.6 6489.6 5709.2 C 6504 5670.6 6515.9 5644.5 6555.3 5564.5 C 6594.5 5484.7 6598.9 5475.7 6607.5 5455.5 C 6621.7 5422.3 6629 5400.5 6629 5391.4 C 6629 5380.5 6617 5375.1 6585.5 5371.7 L 6573.5 5370.4 L 6582 5368.7 C 6620.9 5361.2 6637.1 5358.2 6668.5 5353 C 6746.3 5340.2 6783.5 5335.7 6824 5334.4 C 6865.4 5333 6891.4 5338 6899.6 5348.7 C 6903 5353.2 6905.9 5352.8 6908.4 5347.5 C 6910 5344.3 6910.3 5341.5 6910.3 5331.5 C 6910.2 5306.7 6903.4 5292 6886.1 5279.1 C 6863.7 5262.5 6829.4 5253.1 6780 5250 C 6738.7 5247.5 6660.5 5247.8 6639.7 5250.6 L 6635.3 5251.2 L 6634.8 5246.8 C 6634.5 5244.4 6633.5 5240.7 6632.5 5238.7 C 6624.5 5221.8 6591.1 5203.6 6556 5196.9 C 6540.9 5194.1 6505.9 5193.3 6490 5195.6 Z M 7030.5 5382.1 C 7033.2 5389.7 7033.4 5421.3 7030.7 5427.4 C 7029 5431.2 7028.9 5431.3 7027.5 5429.3 C 7021.9 5421.3 7019.6 5404.1 7022.4 5390.5 C 7025.8 5374.3 7027.1 5372.8 7030.5 5382.1 Z M 6829.3 5543.3 C 6836.1 5546.7 6841.2 5552.3 6844.2 5559.9 C 6846.3 5564.9 6846.5 5567.1 6846.4 5581 C 6846.3 5593.4 6845.8 5598.1 6844.1 5604.5 C 6836.1 5634.8 6810.9 5659.6 6775.6 5671.9 C 6749.1 5681.2 6709.1 5683.2 6697.1 5675.9 C 6694 5674 6693.9 5673.8 6694.6 5669.2 C 6697.1 5651.2 6715.9 5616.8 6738.3 5589 C 6750.9 5573.3 6771.9 5553.3 6780.6 5548.8 C 6797.5 5539.9 6817.6 5537.6 6829.3 5543.3 Z M 7088.5 5606.6 C 7106.2 5619.8 7126.1 5642.4 7134.2 5658.5 C 7143.8 5677.4 7147.2 5701.1 7143.5 5724 C 7142 5732.9 7138.3 5749.1 7137.5 5749.9 C 7137 5750.4 7122.5 5742.3 7115.5 5737.6 C 7112.2 5735.4 7101.5 5727.6 7091.7 5720.3 C 7062.8 5698.8 7039.3 5685 7014.3 5674.9 L 7006 5671.6 L 7007.7 5669.1 C 7019 5651.8 7031.2 5627.6 7041.5 5601.4 L 7048.3 5584.3 L 7063.9 5592.1 C 7072.9 5596.6 7083.3 5602.8 7088.5 5606.6 Z M 7020.5 5728.4 C 7034.8 5732.6 7051.6 5741.5 7076 5757.8 C 7088.4 5766 7102.7 5775.1 7107.8 5778 C 7112.8 5780.9 7117 5783.6 7117 5784 C 7117 5784.4 7112.6 5788.9 7107.3 5794.1 C 7091.8 5809.1 7077.4 5817.8 7058.3 5823.7 C 7049.9 5826.3 7048.5 5826.4 7029.5 5826.4 C 7011.1 5826.4 7008.7 5826.2 6999.5 5823.7 C 6977.4 5817.8 6963.4 5808 6956.7 5793.8 C 6951.8 5783.5 6950.5 5777.2 6950.5 5763.5 C 6950.5 5753.1 6950.8 5750.8 6952.8 5746.5 C 6957 5737.5 6965.2 5730.7 6976.8 5726.9 C 6985.6 5724 7008.2 5724.8 7020.5 5728.4 Z" fill="#000000" stroke="none"/>
    <path d="M 5463.5 5201.2 C 5447.8 5202.9 5432.8 5207.4 5431.6 5210.7 C 5431.2 5211.6 5433.5 5215.5 5437.5 5220.8 C 5448.6 5235.5 5459.8 5260.6 5464.1 5280.4 C 5467 5293.4 5468.2 5312.1 5466.9 5324.3 C 5464.8 5345 5457.9 5373.8 5423.5 5505.5 C 5393.8 5619.1 5382.2 5666.2 5373.4 5707.8 C 5368.8 5729.8 5357.1 5762.4 5346.6 5782.7 C 5332.1 5810.5 5320.6 5821.5 5302.2 5825.1 C 5290 5827.4 5276.3 5824.5 5272.5 5818.7 C 5269.9 5814.7 5267.3 5805.7 5266.5 5798.4 C 5265.9 5792 5266.3 5789.5 5270.9 5770.9 C 5279.3 5736.5 5288 5711 5309 5658.5 C 5331.7 5601.7 5338.2 5580.6 5339.9 5557.3 C 5342.1 5528.4 5336.5 5504.3 5323.7 5487.5 C 5313.5 5474.1 5292.7 5462.4 5271.4 5458.1 C 5233.9 5450.7 5201.6 5458.9 5170 5484.1 C 5148.2 5501.4 5116 5537.4 5096 5566.6 L 5090.5 5574.6 L 5090.4 5558.6 C 5090.3 5545.5 5089.9 5541 5088.1 5534.6 C 5085.4 5524.4 5080.3 5514.2 5074.1 5506.4 C 5062.1 5491.5 5036.2 5477.8 5008.7 5471.8 C 4995 5468.9 4964.2 5468.6 4950.6 5471.3 C 4938.2 5473.8 4933.8 5475.7 4934.2 5478.4 C 4934.5 5480.2 4935.4 5480.6 4941 5481.3 C 4948.1 5482.1 4951.3 5483.9 4954.7 5488.9 C 4960.8 5497.9 4958 5521.5 4945.1 5569 C 4941.7 5581.4 4934.6 5608.8 4929.4 5630 C 4918.8 5672.7 4918.6 5673.6 4902.3 5728 C 4865.9 5849.7 4846 5926.1 4831 6001 C 4826 6025.9 4825.4 6031.5 4826.9 6040.6 C 4828.4 6050.6 4831.3 6057.5 4837.2 6065.3 C 4849.1 6081.2 4872.2 6093.5 4900.7 6099 C 4910.8 6100.9 4924.2 6101.6 4927.4 6100.4 C 4930.1 6099.4 4929.3 6097.5 4922.5 6089.4 C 4914.5 6079.8 4912.1 6073.1 4911.3 6058.4 C 4910.6 6045.4 4912.1 6035.3 4917.6 6016 C 4943.7 5925.4 4988.9 5809.2 5029.6 5727.7 C 5060.2 5666.5 5078.4 5636.5 5105.9 5602.2 C 5116.1 5589.6 5136.8 5568.4 5145.9 5561.5 C 5159.6 5551.1 5176.9 5544.6 5186.3 5546.4 C 5193.8 5547.8 5197.7 5556.3 5196.6 5569.3 C 5195.6 5581.5 5193.7 5588.9 5184.4 5617.7 C 5155.5 5706.8 5149 5737.6 5148.8 5786.9 C 5148.6 5823.9 5153.9 5841 5171 5858 C 5184.2 5871.3 5199.4 5878.1 5222.5 5880.9 C 5252.6 5884.6 5278.1 5879.1 5305.1 5863.2 C 5322.2 5853.1 5336.2 5841.4 5351 5824.9 L 5358.8 5816.3 L 5359.9 5826.7 C 5363.7 5860.3 5376.4 5880 5402.5 5892.7 C 5414.9 5898.7 5427.2 5901.1 5445.5 5901.3 C 5467.8 5901.4 5480.2 5898.5 5501.6 5888 C 5515.8 5881.1 5534.6 5868.8 5544.5 5859.8 C 5551.1 5853.9 5560.1 5844.6 5567.7 5835.7 C 5569.5 5833.7 5571.1 5832 5571.3 5832 C 5571.5 5832 5574.4 5835.3 5577.7 5839.3 C 5592.6 5857.5 5615.1 5868.9 5642.1 5872.1 C 5681.8 5876.7 5723.1 5860.3 5758.3 5826.1 C 5769.1 5815.6 5780.1 5802.6 5783.2 5796.7 L 5784.8 5793.5 L 5785.4 5797 C 5785.7 5798.9 5786.5 5803.9 5787.1 5808 C 5789.5 5823.5 5796.6 5840.2 5805.3 5850.8 C 5810.7 5857.3 5819.6 5864.9 5826 5868.4 C 5837.1 5874.4 5857.5 5877.2 5875.7 5875.1 C 5890.7 5873.3 5903 5869.7 5916.5 5863 C 5932.7 5855 5945 5845.9 5960.2 5830.9 L 5972.8 5818.4 L 5977.4 5827.6 C 5982.8 5838.5 5989.4 5845.6 6000.2 5852.4 C 6026.2 5868.6 6063.8 5871 6106 5859.3 C 6112.1 5857.6 6116.3 5855.1 6114.3 5854.3 C 6113.6 5854 6109.6 5851.6 6105.5 5848.9 C 6086.8 5836.7 6075.8 5819.5 6074.3 5800 C 6073.6 5790.6 6075.9 5774.1 6080 5759.5 C 6091.4 5719 6124.1 5659.6 6159.3 5615.5 C 6170 5602.1 6201.3 5571.1 6212.5 5562.7 C 6227.3 5551.7 6247.5 5543 6258.4 5543 C 6266.6 5543 6268.7 5549.5 6267 5568.7 C 6264.5 5597.7 6261.6 5607.7 6229.5 5700.4 C 6207.5 5764.3 6202.1 5790.1 6203.3 5826.9 C 6203.9 5845 6205 5850.4 6210.1 5861 C 6214.9 5870.7 6221.7 5876.8 6234.1 5882.9 C 6250.2 5890.7 6265.4 5893.9 6285.6 5894 C 6299.4 5894 6314.3 5892.5 6327.5 5889.9 C 6339.1 5887.6 6363.1 5879.8 6368.1 5876.8 L 6371.5 5874.7 L 6367.5 5873.5 C 6332.8 5863.1 6324.5 5819.3 6341.6 5736.5 C 6343.6 5727.1 6348.7 5705.5 6353 5688.5 C 6357.3 5671.4 6364.9 5641.5 6369.9 5622 C 6374.8 5602.5 6380.7 5577.5 6382.9 5566.5 C 6385.2 5555.5 6387.7 5543.8 6388.6 5540.4 C 6390.8 5532.1 6390.1 5499.5 6387.5 5490.5 C 6379.2 5460.9 6354.6 5445 6325.6 5450.4 C 6296.5 5455.9 6252.8 5480.4 6215.6 5512.2 C 6202.8 5523.2 6182.7 5543.5 6171.7 5556.5 L 6161.7 5568.4 L 6162.3 5561 C 6162.7 5556.9 6164.1 5548.1 6165.5 5541.5 C 6170.2 5519 6167.9 5496.5 6159.1 5478.5 C 6146.9 5453.7 6123.8 5439.3 6090.7 5435.9 C 6084.6 5435.2 6067.6 5434.7 6053 5434.7 C 6029.2 5434.6 6025.4 5434.8 6016.1 5436.8 C 6010.3 5438 6005.4 5439.3 6005.1 5439.6 C 6004 5440.6 6007.6 5442 6011.6 5442 C 6020.7 5442 6031.1 5450.3 6034.4 5460.3 C 6039.4 5475.1 6033.7 5509.2 6014.5 5579.2 C 6000.7 5629.2 5974.5 5740.8 5971 5764 C 5969.6 5773.1 5965.7 5780.7 5955.9 5793.7 C 5941.8 5812.3 5929 5821.6 5911.6 5826 C 5900.9 5828.7 5886.1 5829.7 5881.9 5828 C 5878.6 5826.6 5876 5822.1 5876 5817.6 C 5876 5812.4 5883.5 5793.3 5907.6 5737.4 C 5914.9 5720.2 5926.9 5691.5 5934.1 5673.5 L 5947.2 5640.7 L 5946.8 5633.8 C 5945.8 5621 5937.7 5609.1 5921.6 5596.7 C 5906.5 5585 5893.2 5578 5875.1 5572 C 5851.1 5564 5828 5561.7 5828 5567.3 C 5828 5568 5828.9 5570.3 5830 5572.5 C 5833.7 5579.7 5832.1 5601.8 5825.5 5634.5 C 5821.1 5656.3 5816.3 5673 5809.3 5690.5 C 5795.4 5725.4 5779.2 5751.7 5757 5775.2 C 5736.4 5797.2 5717.2 5807.2 5690 5810.2 C 5677.4 5811.6 5670.8 5810.6 5661.3 5805.9 C 5647.5 5799.2 5640.1 5788.8 5636.3 5771 C 5633.6 5758.1 5633.9 5722.9 5636.8 5706.6 C 5642.1 5678.1 5652.1 5657.1 5672.7 5631.5 C 5681.6 5620.5 5699.2 5603 5708.5 5595.9 C 5731.6 5578.2 5758.3 5564.5 5784.7 5556.6 C 5818.8 5546.4 5829.5 5545 5859.4 5546.9 C 5889.5 5548.8 5906.6 5552.5 5921.7 5560.5 L 5928 5563.7 L 5930.1 5558.1 C 5938.9 5534.5 5938.2 5506.3 5928.3 5486.5 C 5921.5 5473 5906.4 5457.2 5892.1 5448.6 C 5871.2 5436.1 5843.3 5430.1 5812 5431.3 C 5765.4 5433.2 5728.4 5445.6 5685.7 5473.7 C 5637.2 5505.6 5598.3 5549.9 5572.5 5602.5 C 5551.5 5645.3 5542 5684.7 5542 5728.5 C 5542 5752.7 5544.9 5770.8 5551.9 5791.4 L 5555 5800.3 L 5550.8 5806.4 C 5541.1 5820.8 5529.7 5832.7 5520.8 5837.8 C 5510.6 5843.6 5493.3 5847.6 5481.6 5846.8 C 5475.7 5846.5 5474.6 5846 5471.5 5843 C 5466.7 5838.3 5465 5832.2 5465 5818.9 C 5465 5800.3 5470.1 5775.7 5480.6 5743.6 C 5504.2 5671.4 5509.1 5657.9 5530.1 5606.8 C 5596.2 5446.3 5621.2 5377 5629.1 5332.2 C 5632 5316.2 5632.8 5285.4 5630.7 5275.3 C 5627.6 5260.7 5621.5 5249.2 5610.8 5237.6 C 5587.3 5212 5547.9 5199.7 5490.6 5200.1 C 5480.1 5200.2 5467.9 5200.7 5463.5 5201.2 Z" fill="#000000" stroke="none"/>
    <path d="M 8401 5657.7 C 8372.4 5677 8340.7 5695.5 8311.8 5709.4 C 8254.6 5737.1 8205.9 5750.6 8137 5757.7 C 8122 5759.2 8110.1 5759.5 8054.5 5759.5 C 8017.5 5759.5 7977.4 5758.9 7961.5 5758.2 C 7895.3 5755.2 7837.8 5751.6 7764 5745.8 C 7686.8 5739.8 7636.8 5741.8 7593.5 5752.6 C 7541.8 5765.6 7502.3 5788.1 7466.5 5825.2 C 7423.1 5870 7393.3 5925.1 7354 6032.4 C 7349 6046.1 7343.5 6060 7341.8 6063.2 C 7335.4 6075.2 7324 6082.5 7309.5 6083.9 C 7298 6084.9 6959.5 6083.4 6926.5 6082.1 C 6854.2 6079.4 6805.1 6076.7 6681.5 6069 C 6470.7 6055.8 6431 6054.5 6277.5 6055.3 C 6173.3 6055.9 6129.1 6056.6 6031.5 6059 C 5470.2 6073 4951.7 6120.1 4461 6201.5 C 4374.8 6215.8 4365.5 6217.7 4355.9 6222.5 C 4342.2 6229.5 4341.9 6240.9 4354.4 6275 L 4359.7 6289.5 L 4369.1 6289.3 C 4381.9 6288.9 4385.1 6288.5 4666 6246.6 C 4869.9 6216.2 5004.7 6197.5 5110 6185.1 C 5373.6 6154 5665.6 6134 6059 6120 C 6089.5 6119 6119.3 6117.8 6125.1 6117.5 C 6142.3 6116.6 6158.3 6119.9 6169.9 6126.7 C 6181.7 6133.5 6338.2 6263.6 6344.2 6271.5 C 6349.3 6278.2 6351.5 6284.9 6351.4 6293.5 C 6351.3 6302 6350.1 6305.6 6332.6 6348.5 C 6282.5 6471 6269 6519.1 6269 6574.8 C 6269 6594.8 6270.1 6606.6 6273.6 6624 C 6279.5 6653.2 6291.1 6679.5 6321.2 6732 L 6337.5 6760.5 L 6406.7 6817.5 C 6444.7 6848.8 6480.7 6879.2 6486.7 6885 C 6499.9 6897.7 6516.4 6911.2 6545 6933 C 6589 6966.4 6604 6979.8 6628.1 7007.2 C 6635.8 7015.8 6652.6 7034.5 6665.6 7048.7 C 6714.8 7102.3 6733.6 7124.9 6752.7 7153.6 C 6774.2 7185.8 6788.6 7215.4 6816.9 7285.7 C 6825.7 7307.6 6834.5 7329.3 6836.5 7334 C 6838.5 7338.6 6839.9 7343.2 6839.7 7344.2 C 6839.4 7345.2 6839.6 7345.8 6840.1 7345.4 C 6840.6 7345.1 6841 7344.3 6841 7343.6 C 6841 7342.8 6844.9 7332.2 6849.6 7319.9 C 6940.1 7085.5 6961 6855.9 6913.1 6621.9 C 6888.9 6504 6856.5 6426.4 6803 6358.3 C 6792 6344.2 6767.2 6319.5 6754.5 6309.9 C 6706.9 6273.7 6655.8 6253.2 6595.5 6245.9 C 6582.6 6244.3 6547.5 6244.3 6534 6245.9 C 6518.8 6247.6 6500.7 6251.5 6486.5 6256.1 C 6474.2 6260 6458.3 6266.3 6456.7 6267.9 C 6455.5 6269.1 6459.5 6275.2 6476 6296.5 C 6544.3 6384.8 6603.5 6474.8 6654.4 6568 C 6668.7 6594.1 6699.1 6655.6 6707.6 6675.5 C 6711.3 6684.3 6715.1 6692.4 6716.1 6693.5 C 6719.2 6697.1 6724 6706.1 6728.1 6715.9 C 6730.3 6721.2 6745.1 6766.2 6761 6816 C 6776.9 6865.8 6793.8 6918.8 6798.6 6933.8 C 6804.4 6951.9 6807 6961.4 6806.3 6962.1 C 6805.8 6962.6 6804.1 6963.2 6802.6 6963.3 L 6799.8 6963.5 L 6751 6836.4 L 6702.2 6709.3 L 6684.6 6679.7 C 6675 6663.4 6665.4 6646.8 6663.4 6642.8 C 6655.1 6626.4 6623 6574.2 6596.5 6534 C 6537.6 6444.9 6473.4 6362.8 6399 6281.5 C 6374.8 6255 6309.8 6190.4 6283.5 6166.5 C 6258.2 6143.5 6242.5 6128.5 6236.9 6121.8 L 6233 6117.2 L 6244.7 6115.1 C 6269 6110.9 6501.1 6108.2 6621.5 6110.8 C 6814.8 6115 6986.5 6115.1 7110 6111 C 7324.5 6103.9 7507.2 6084.6 7651 6053.9 C 7794.6 6023.2 7915.8 5981.4 8035 5921.4 C 8063 5907.3 8077.1 5901 8080.3 5901 C 8080.9 5901 8076.8 5904.1 8071 5907.8 C 7900.3 6018.3 7703.1 6089.3 7446.5 6132.5 C 7418.2 6137.3 7367.8 6145 7365 6145 C 7363.1 6145 7364 6147 7373.1 6162.2 C 7391 6192.2 7410.1 6220.1 7427 6241 C 7477.6 6303.5 7540 6341 7614.3 6353.2 C 7625.8 6355.1 7631.4 6355.4 7657 6355.4 C 7682.5 6355.4 7688.5 6355.1 7701 6353.2 C 7749.3 6345.7 7794.1 6330.5 7852 6301.9 C 7930.3 6263.3 8001.5 6214.5 8073.5 6150 C 8093.1 6132.4 8150.7 6074.9 8169.1 6054.5 C 8214.2 6004.4 8244.8 5965.2 8278.5 5914 C 8319.3 5852.3 8353.3 5788.9 8385.5 5714.5 C 8395 5692.6 8411.3 5652 8410.8 5651.5 C 8410.7 5651.4 8406.2 5654.1 8401 5657.7 Z" stroke="none" style="fill: rgb(27, 200, 20);"/>
  </g>
</svg>