<?xml version="1.0" encoding="utf-8"?>
<svg viewBox="526.209 526.2 9162.687 7429.341" width="9162.687" height="7429.341" xmlns="http://www.w3.org/2000/svg">
  <defs>
    <radialGradient gradientUnits="userSpaceOnUse" cx="2259.167" cy="2814.189" r="773.246" id="gradient-4">
      <stop offset="0" style="stop-color: rgba(26, 200, 20, 1)"/>
      <stop offset="1" style="stop-color: rgba(14, 107, 11, 1)"/>
    </radialGradient>
    <radialGradient gradientUnits="userSpaceOnUse" cx="3466.669" cy="3036.771" r="434.311" id="gradient-5">
      <stop offset="0" style="stop-color: rgba(26, 200, 20, 1)"/>
      <stop offset="1" style="stop-color: rgba(14, 107, 11, 1)"/>
    </radialGradient>
    <radialGradient gradientUnits="userSpaceOnUse" cx="4529.976" cy="5235.485" r="800.828" id="gradient-3" gradientTransform="matrix(1, 0, 0, 1, 0, 0)">
      <stop offset="0" style="stop-color: rgba(88, 88, 90, 1)"/>
      <stop offset="1" style="stop-color: rgba(38, 38, 38, 1)"/>
    </radialGradient>
  </defs>
  <g transform="matrix(1.372716, 0, 0, 1.372716, -928.101013, -477.374298)">
    <g transform="matrix(1, 0, 0, 1, 1780.681152, -198.665192)">
      <path d="M 2022.221 1068.894 C 1927.821 1187.794 1855.521 1320.894 1808.421 1462.894 C 1719.121 1731.494 1719.821 2025.294 1810.321 2296.894 C 1831.021 2358.794 1851.621 2408.794 1881.121 2467.894 C 1907.321 2520.694 1929.621 2559.494 1960.221 2605.894 C 2011.921 2684.294 2060.721 2744.294 2127.421 2810.994 C 2178.821 2862.494 2218.821 2897.094 2275.421 2939.194 C 2309.121 2964.294 2331.621 2981.194 2348.921 2994.794 C 2479.521 3096.894 2566.321 3189.394 2627.721 3291.994 C 2650.221 3329.594 2676.521 3378.594 2696.721 3420.594 C 2804.521 3644.594 2839.821 3858.394 2803.921 4069.194 C 2794.721 4123.694 2779.321 4182.494 2760.321 4235.794 C 2752.121 4258.594 2739.421 4291.294 2736.821 4295.894 L 2735.421 4298.394 L 2735.921 4295.894 C 2736.121 4294.494 2737.321 4283.894 2738.421 4272.394 C 2751.421 4136.194 2745.721 4010.394 2720.921 3886.394 C 2676.421 3663.994 2570.021 3458.494 2397.121 3261.094 C 2323.921 3177.394 2240.421 3097.094 2139.421 3013.094 C 2071.521 2956.594 2056.921 2944.294 2037.421 2927.194 C 1968.721 2867.094 1908.021 2806.494 1859.921 2750.394 C 1792.321 2671.494 1739.321 2591.794 1697.921 2506.594 C 1691.921 2494.194 1686.621 2483.994 1686.321 2483.994 C 1685.621 2483.894 1683.221 2487.594 1667.421 2512.894 C 1631.121 2570.994 1594.821 2642.294 1570.221 2703.794 C 1527.121 2811.394 1500.821 2921.094 1490.521 3035.394 C 1486.421 3080.594 1485.921 3092.594 1485.921 3150.894 C 1485.921 3209.294 1486.521 3224.794 1490.521 3271.394 C 1498.021 3359.194 1516.921 3467.894 1535.921 3532.394 C 1572.521 3656.694 1650.421 3791.594 1758.121 3916.994 C 1806.621 3973.494 1866.321 4032.994 1923.921 4082.394 C 2071.821 4209.194 2240.521 4303.894 2390.121 4343.894 C 2461.921 4363.094 2514.521 4368.794 2534.921 4359.494 C 2542.021 4356.294 2546.921 4351.694 2550.121 4345.094 C 2552.721 4339.794 2552.921 4338.594 2552.921 4326.894 C 2552.921 4316.594 2552.421 4312.594 2550.121 4303.894 C 2545.521 4286.094 2507.721 4178.694 2490.421 4134.394 C 2397.621 3896.294 2277.521 3674.294 2132.921 3473.894 C 2126.821 3465.394 2121.421 3457.794 2120.921 3456.994 C 2119.921 3455.194 2123.821 3457.594 2139.421 3467.894 C 2232.821 3530.194 2312.321 3622.494 2383.621 3751.394 C 2396.321 3774.394 2432.421 3843.294 2465.921 3908.394 C 2502.521 3979.694 2705.421 4386.594 2705.421 4388.794 C 2705.421 4389.894 2705.921 4390.894 2706.521 4391.094 C 2708.421 4391.694 2709.521 4406.594 2708.421 4416.494 C 2706.521 4433.894 2700.821 4449.294 2686.321 4476.394 C 2667.121 4512.294 2659.921 4529.194 2656.921 4545.294 C 2655.321 4553.994 2654.421 4571.194 2655.521 4572.394 C 2656.921 4573.694 2688.721 4556.094 2707.221 4543.694 C 2732.121 4526.994 2750.821 4511.494 2772.421 4489.294 C 2839.521 4420.394 2886.621 4322.594 2919.321 4184.294 C 2936.721 4110.794 2947.021 4040.594 2952.621 3956.894 C 2954.421 3930.594 2954.421 3824.494 2952.621 3797.394 C 2946.321 3699.694 2934.221 3615.494 2912.721 3518.394 C 2900.721 3463.894 2889.121 3420.194 2864.121 3334.394 C 2855.621 3305.194 2839.321 3248.294 2827.921 3207.894 C 2754.121 2945.694 2731.421 2869.494 2693.521 2756.894 C 2624.321 2550.994 2546.321 2380.094 2456.821 2238.094 L 2446.421 2221.594 L 2450.621 2216.994 C 2452.921 2214.494 2459.221 2207.694 2464.621 2201.994 L 2474.421 2191.594 L 2478.621 2196.394 C 2590.821 2323.794 2687.821 2485.394 2768.921 2680.394 C 2821.621 2807.094 2866.721 2939.894 2942.221 3190.394 L 2952.221 3223.394 L 2957.721 3205.894 C 3021.621 3004.994 3044.521 2817.794 3026.421 2643.894 C 3001.721 2407.294 2902.221 2183.094 2716.521 1946.394 C 2655.521 1868.694 2603.921 1810.694 2465.421 1664.394 C 2380.621 1574.794 2340.221 1530.794 2300.821 1484.894 C 2201.621 1369.194 2136.721 1275.194 2085.021 1171.894 C 2066.521 1134.894 2058.221 1116.494 2044.821 1082.394 C 2039.621 1069.194 2034.921 1057.494 2034.521 1056.394 C 2033.921 1054.794 2031.921 1056.794 2022.221 1068.894 Z" stroke="none" style="fill: url(#gradient-4);"/>
      <path d="M 3746.821 2377.094 C 3721.521 2427.894 3682.821 2485.594 3638.421 2538.694 C 3589.221 2597.694 3546.021 2641.194 3434.421 2743.894 C 3366.321 2806.594 3351.421 2820.694 3316.921 2855.294 C 3267.321 2905.094 3235.321 2941.394 3200.721 2987.394 C 3130.321 3080.994 3081.621 3180.494 3055.921 3282.894 C 3024.621 3408.094 3024.521 3538.994 3055.521 3683.894 C 3058.321 3696.794 3060.921 3707.894 3061.321 3708.694 C 3062.121 3710.094 3073.821 3682.194 3108.221 3596.894 C 3157.521 3474.694 3175.821 3433.094 3209.321 3367.394 C 3242.621 3302.194 3262.021 3268.794 3286.121 3235.094 C 3313.721 3196.494 3346.621 3162.594 3380.721 3137.494 C 3385.021 3134.294 3388.721 3131.894 3388.821 3132.094 C 3388.921 3132.194 3384.121 3141.794 3378.121 3153.394 C 3354.921 3198.294 3297.021 3313.994 3282.621 3344.594 C 3238.021 3439.294 3204.721 3519.494 3180.921 3589.894 C 3164.021 3639.694 3163.521 3671.694 3179.121 3688.994 C 3189.721 3700.694 3203.221 3701.194 3234.821 3690.894 C 3244.721 3687.694 3259.821 3683.194 3268.321 3680.894 C 3397.521 3646.194 3514.821 3583.494 3613.421 3496.394 C 3632.521 3479.594 3670.721 3441.194 3686.921 3422.494 C 3778.321 3317.794 3842.021 3195.694 3875.421 3060.894 C 3915.321 2899.694 3908.421 2730.894 3855.321 2571.794 C 3833.821 2507.394 3802.921 2441.394 3766.121 2381.294 C 3752.921 2359.794 3755.121 2360.294 3746.821 2377.094 Z" stroke="none" style="fill: url(#gradient-5);"/>
    </g>
    <path d="M 4461.602 4436.829 C 4460.502 4437.029 4441.602 4437.829 4419.602 4438.729 C 4258.402 4445.029 4156.102 4455.229 4059.602 4474.829 C 3962.702 4494.529 3902.202 4515.429 3803.002 4563.529 C 3791.102 4569.229 3779.202 4575.429 3776.502 4577.229 C 3750.502 4594.829 3735.702 4618.129 3730.602 4649.529 C 3728.002 4665.729 3729.002 4704.829 3732.702 4729.529 C 3744.502 4808.829 3781.902 4849.229 3874.202 4882.229 C 3888.002 4887.129 3924.302 4898.129 3951.602 4905.629 C 4113.202 4949.929 4290.002 4975.529 4506.102 4985.729 C 4566.902 4988.529 4659.702 4991.229 4699.902 4991.229 L 4719.102 4991.229 L 4719.102 5000.129 L 4719.102 5009.029 L 4716.402 5009.629 C 4711.002 5010.729 4655.102 5018.129 4625.602 5021.629 C 4367.002 5052.329 4144.402 5049.429 3934.602 5012.629 C 3897.802 5006.129 3848.402 4995.829 3817.702 4988.129 C 3811.202 4986.429 3805.702 4985.229 3805.602 4985.429 C 3805.402 4985.629 3806.602 4993.129 3808.202 5002.229 C 3810.802 5017.129 3837.902 5127.729 3895.102 5356.129 C 3931.602 5502.129 3970.302 5660.029 4001.102 5788.229 C 4010.002 5825.329 4019.102 5860.829 4021.302 5867.029 C 4039.202 5919.229 4073.202 5953.829 4124.102 5972.029 C 4151.302 5981.729 4198.402 5996.029 4219.102 6000.729 C 4361.802 6033.429 4524.202 6042.529 4701.102 6027.629 C 4779.102 6021.129 4823.802 6013.929 4889.602 5997.229 C 4928.602 5987.329 5005.602 5964.529 5020.202 5958.629 C 5065.002 5940.429 5091.202 5902.829 5098.502 5846.429 C 5100.002 5835.129 5100.602 5821.229 5099.702 5821.229 C 5099.502 5821.229 5094.902 5823.329 5089.502 5825.829 C 5072.402 5833.729 5039.302 5847.729 5019.902 5855.129 C 4932.602 5888.429 4853.202 5906.229 4769.102 5911.329 C 4748.002 5912.629 4688.302 5912.029 4684.202 5910.429 C 4682.102 5909.729 4682.502 5909.329 4688.702 5906.529 C 4699.602 5901.729 4713.102 5897.729 4735.602 5892.729 C 4868.602 5863.429 4965.002 5825.529 5050.802 5768.629 C 5102.202 5734.629 5128.802 5705.829 5143.602 5668.529 C 5146.102 5662.129 5158.302 5613.929 5182.702 5514.629 C 5245.902 5256.729 5302.702 5026.529 5324.002 4941.729 C 5327.802 4926.329 5330.902 4913.729 5330.802 4913.629 C 5330.702 4913.629 5315.102 4904.129 5296.102 4892.729 C 5277.102 4881.229 5256.902 4869.029 5251.102 4865.429 C 5208.402 4839.129 5152.602 4810.829 5094.902 4786.129 C 5070.202 4775.629 5054.202 4769.729 5036.602 4764.729 L 5023.502 4761.029 L 4992.602 4766.129 C 4903.102 4780.729 4817.602 4790.029 4725.602 4795.229 C 4715.202 4795.829 4705.002 4796.729 4703.102 4797.229 C 4697.002 4798.829 4677.002 4800.429 4673.202 4799.629 C 4671.202 4799.229 4635.602 4799.029 4594.102 4799.129 C 4507.402 4799.329 4459.802 4798.129 4390.102 4793.729 C 4277.702 4786.629 4208.002 4777.529 4097.602 4755.629 C 4056.202 4747.429 3937.702 4722.429 3929.402 4720.229 C 3917.102 4716.829 3902.602 4710.529 3870.402 4694.429 L 3839.102 4678.829 L 3839.102 4667.629 L 3839.102 4656.529 L 3859.402 4648.429 C 3870.502 4644.029 3889.702 4636.229 3902.102 4631.229 C 3946.502 4613.129 3965.702 4607.629 4009.602 4600.229 C 4069.902 4590.229 4116.902 4583.429 4264.002 4563.229 C 4304.402 4557.729 4343.302 4552.229 4350.502 4551.129 C 4369.402 4548.229 4419.502 4546.029 4438.102 4547.229 C 4459.902 4548.729 4518.402 4555.129 4523.602 4556.629 C 4524.102 4556.729 4525.802 4550.729 4527.302 4543.329 C 4534.902 4505.229 4552.302 4472.729 4579.302 4446.129 L 4588.002 4437.529 L 4576.802 4436.929 C 4565.702 4436.229 4465.402 4436.229 4461.602 4436.829 Z" stroke="none" style="fill: url(#gradient-3);"/>
  </g>
</svg>